<svg id="Layer_1" data-name="Layer 1" xmlns="http://www.w3.org/2000/svg" viewBox="0 0 1465.26 1232.18"><defs><style>.cls-1{fill:#020202;}.cls-2{fill:#b09789;}.cls-3{fill:#f6f3ef;}.cls-4{fill:#ead3bf;}.cls-5{fill:#d7baaa;}.cls-6{fill:#81695c;}.cls-7{fill:#6a4b39;}.cls-8{fill:#9e4a33;}.cls-19,.cls-21,.cls-9{fill:none;}.cls-9{stroke:#0dff00;}.cls-19,.cls-9{stroke-miterlimit:10;}.cls-10{fill:#010101;}.cls-11{fill:#cb7158;}.cls-12{fill:#4183b6;}.cls-13{fill:#88cbe7;}.cls-14{fill:#81695d;}.cls-15{fill:#371f13;}.cls-16{fill:#6a4b3a;}.cls-17{fill:#6c4531;}.cls-18{fill:#9d4a33;}.cls-19{stroke:#6a4b39;}.cls-20{fill:#af9688;}.cls-22{fill:#392114;}</style></defs><title>Logo</title><path class="cls-1" d="M1733.93,1120.57c-110.52-13.76-202.7-93.71-202.7-93.71,29,.77,36.38-7.79,36.38-7.79-6.42.46-21.55-4.89-36.84-16.21s-43.72-14.06-43.72-14.06c10.4-11.16,24.77-33.48,24.77-33.48l2,5.81a283.26,283.26,0,0,0,.16-64.81l5.65,5.5c-6.72-92.64,7.72-120.15,16-152.48s15.13-48.62,20-69,6.42-20.87,11.92-34.63,26.94-35.19,33.94-41,.45-7.57.45-7.57l-17.12-5c39.75-24.76,68.49-101.81,75.52-127.18s16.2-54.88,23.24-69.86-1.53-10.55-1.53-10.55-33.63,15.59-58.4,33S1582,462.79,1582,462.79c7.34-42.5-5.5-56-5.5-56-9.17,34.24-66.65,96-73.68,103s4-.61-52,40.66-99.67,88.36-99.67,88.36c-48.61,15.59-99.66,44-111.59,51.06s-53.88,52.28-53.88,52.28c-77.31-27.26-177.89-29.26-183-29.35h-.2l-1.2,0-1.2,0h-.2c-5.09.09-105.67,2.09-183,29.35,0,0-42-45.25-53.88-52.28s-63-35.47-111.59-51.06c0,0-43.72-47.08-99.67-88.36s-44.95-33.63-52-40.66-64.51-68.79-73.68-103c0,0-12.84,13.45-5.5,56,0,0-16.82-27.82-41.58-45.25s-58.4-33-58.4-33-8.56-4.43-1.53,10.55,16.21,44.48,23.24,69.86,35.77,102.42,75.52,127.18l-17.12,5s-6.54,1.72.45,7.57,28.44,27.28,33.94,41,7.11,14.22,11.92,34.63,11.7,36.68,19.95,69,22.7,59.84,16,152.48l5.65-5.5a283.26,283.26,0,0,0,.16,64.81l2-5.81s14.37,22.32,24.77,33.48c0,0-28.44,2.75-43.72,14.06s-30.42,16.67-36.84,16.21c0,0,7.33,8.56,36.38,7.79,0,0-92.18,80-202.7,93.71,0,0,4.13,87.59,188.48,132.08,0,0-98.14,93.55-155,98.6,0,0,48.61,24.76,67.87,37.6s70.62,38.07,84.84,46.78,32.56,19.26,40.36,43.57c0,0-5.81-2-26.91,5.35,0,0,96.61,2.9,170.91,57.47,0,0,14.9-13.75,25.68-16,0,0-10.09,26.37-17.89,33.71,0,0,106.63-7.11,156.16,1.38,0,0-23.85,8.94-36.46,23.38,0,0,33-1.37,52,0s47.69,1.38,63.28-5.5,37.15-22.47,37.15-22.47-31.64,47.46-40.59,59.62c0,0,6.43.69,28.9-22.24L908,1600s16-15.6,36-23.16,38.15-15.11,56-15.82l1.3.07,1.3-.07c17.89.71,36.14,8.26,56,15.82s36,23.16,36,23.16l.46-6.19c22.47,22.93,28.9,22.24,28.9,22.24-9-12.16-40.59-59.62-40.59-59.62s21.55,15.59,37.15,22.47,44.25,6.88,63.28,5.5,52.05,0,52.05,0c-12.61-14.44-36.46-23.38-36.46-23.38,49.53-8.49,156.16-1.38,156.16-1.38-7.8-7.34-17.89-33.71-17.89-33.71,10.78,2.3,25.68,16,25.68,16,74.3-54.57,170.91-57.47,170.91-57.47-21.1-7.34-26.91-5.35-26.91-5.35,7.8-24.31,26.14-34.86,40.36-43.57s65.58-33.94,84.84-46.78,67.87-37.6,67.87-37.6c-56.86-5-155-98.6-155-98.6C1729.8,1208.16,1733.93,1120.57,1733.93,1120.57Zm-671.09,143a22.75,22.75,0,0,0-2.4-.5l-.8-.09c-.2,0-.39,0-.58,0h0c-.12,0-.25,0-.37,0-1.23-.05-2.42-.08-3.58-.11l-1.06,0c-3.4-.07-6.47-.07-9.28-.07h-4.88l-1.19,0-1.15,0c-1,0-2-.06-2.88-.12l-.56,0-1.08-.08a35.16,35.16,0,0,1-4.2-.58,22.44,22.44,0,0,1-2.93-.76,40.8,40.8,0,0,0-4.34-1.21c-.75-.16-1.5-.3-2.28-.43s-1.56-.22-2.37-.3c-1.1-.12-2.25-.19-3.44-.21l-1.14,0c-1.46,0-3,.06-4.62.19q-1.2.09-2.46.24c-.79.09-1.6.2-2.43.32h-.2l-.85-.13-.42-.06-.42.06-.85.13h-.2c-.83-.12-1.64-.23-2.43-.32s-1.66-.18-2.46-.24c-1.63-.13-3.16-.19-4.62-.19l-1.14,0c-1.19,0-2.34.09-3.44.21q-1.22.12-2.37.3c-.78.13-1.53.27-2.28.43a40.8,40.8,0,0,0-4.34,1.21,22.44,22.44,0,0,1-2.93.76,35.16,35.16,0,0,1-4.2.58l-1.08.08-.56,0c-.92.06-1.88.09-2.88.12l-1.15,0-1.19,0h-4.88c-2.81,0-5.88,0-9.28.07l-1.06,0c-1.16,0-2.35.06-3.58.11-.12,0-.25,0-.37,0h-.05c-.19,0-.38,0-.58,0l-.8.09a22.75,22.75,0,0,0-2.4.5v0a59.09,59.09,0,0,1,1.51-6.59h0l.17-.53a1.31,1.31,0,0,1,0-.15c.25-.79.74-2.21,1.47-4.13l.29-.78c1.26-3.24,3.13-7.67,5.67-12.71q.69-1.37,1.44-2.79c1.76-3.31,3.79-6.82,6.11-10.39,8.57-13.19,21.07-27.13,38.23-34.38h0c1.66-.71,3.35-1.35,5.1-1.91l.12-.05h.08l.85.28.42.14.42-.14.85-.28h.08l.12.05c1.75.56,3.44,1.2,5.1,1.91h0c17.16,7.25,29.66,21.19,38.23,34.38,2.32,3.57,4.35,7.08,6.11,10.39q.75,1.42,1.44,2.79c2.54,5,4.41,9.47,5.67,12.71l.29.78c.73,1.92,1.22,3.34,1.47,4.13a1.31,1.31,0,0,1,.05.15l.17.53h0a59.09,59.09,0,0,1,1.51,6.59Z" transform="translate(-268.67 -383.91)"/><path class="cls-2" d="M1356,646.23s-69.56,29.66-93.4,45.25-71.85,59-71.85,59,38.83,41.58,40.36,41.58h86.36l-7.18-35.46s-2.14-9.17,12.23-28.13,41.34-64.35,52-71.23l4,3,20.79-3.82L1393,641.56Z" transform="translate(-268.67 -383.91)"/><path class="cls-2" d="M646.64,646.23s69.55,29.66,93.4,45.25,71.85,59,71.85,59-38.83,41.58-40.36,41.58H685.16l7.19-35.46s2.14-9.17-12.23-28.13-41.35-64.35-52-71.23l-4,3-20.79-3.82,6.18-14.91Z" transform="translate(-268.67 -383.91)"/><path class="cls-3" d="M1719.4,1126.75s-9.13,29-39,52.89-98.63,61.45-153.42,72.46c0,0,78.54,78,138.5,100.28,0,0-39.88,26.9-66.66,40.36s-80.67,47.08-86.15,53.8-21.61,37.3-21.61,37.3-93.46,16.21-129.38,52.28c0,0-18.87-16.2-39.27-18,0,0,11,19.56,18.57,31.49,0,0-116.59-4.9-156.77,8.56,0,0,3.36,4.58,23.75,15.59,0,0-76.1,4-88.59-1.22s-36.83-18.35-42.92-24.16a33.55,33.55,0,0,0,1.83,28.13s-37.56-26.81-75.72-21.74h-.2l-1.1-.13-1.1.13h-.2c-38.16-5.07-75.72,21.74-75.72,21.74a33.55,33.55,0,0,0,1.83-28.13c-6.09,5.81-30.45,19-42.92,24.16s-88.59,1.22-88.59,1.22c20.39-11,23.75-15.59,23.75-15.59-40.18-13.46-156.77-8.56-156.77-8.56,7.61-11.93,18.57-31.49,18.57-31.49-20.4,1.83-39.27,18-39.27,18-35.92-36.07-129.38-52.28-129.38-52.28s-16.13-30.57-21.61-37.3-59.35-40.35-86.15-53.8-66.66-40.36-66.66-40.36c60-22.32,138.5-100.28,138.5-100.28-54.79-11-123.58-48.61-153.42-72.46s-39-52.89-39-52.89c88.27-3.37,164.3-64.59,173.89-72.38s23.63-24.08,27.17-25.46,13.2,2.86,13.46,3a15.83,15.83,0,0,0-7.75-7c-5.71-2.52-27.4-9.52-27.4-9.52s9.81,0,29.68-8.71,42.23-10.62,50.92-12.61,11.26-7.64,11.26-7.64H543.17c6.39-14.22,32.56-30.42,39.87-34.7a32.94,32.94,0,0,0,10.81-10.09c-7.77.15-16,5.35-19.49,7.18s-19.18,10.86-19.33,2.75,6.25-15.13,6.25-15.13c-.92-19.11,16.89-23.69,16.89-23.69C531,896.53,538,864.12,538.29,851s2.44-71.85,2.44-71.85c45.66,16.2,66.82,48.92,66.82,48.92-3.66-50.91-30.9-160.82-30.9-160.82,18,12.54,64,100.51,74.05,120s12.1,40,13,46.93,12.48,14.68,15.82,6.73v0c3.36-8,7.15-46.76,7.15-46.76l.8-1.53.27-.52,36.83-71c14.13,2.55,78.09,26.18,87.2,29.55l1.07.4h0l7.3,6.12c67.09-28.62,174.52-29,179.83-29h2.6c5.31,0,112.74.43,179.83,29l7.3-6.12h0l1.07-.4c9.11-3.37,73.07-27,87.2-29.55l36.83,71,.27.52.8,1.53s3.79,38.77,7.15,46.76v0c3.34,8,14.91.15,15.82-6.73s3-27.44,13-46.93,56.09-107.46,74-120c0,0-27.24,109.91-30.9,160.82,0,0,21.16-32.72,66.82-48.92,0,0,2.13,58.7,2.44,71.85s7.3,45.55-39.88,61.76c0,0,17.81,4.58,16.89,23.69,0,0,6.39,7,6.25,15.13s-15.84-.91-19.33-2.75-11.72-7-19.49-7.18a32.94,32.94,0,0,0,10.81,10.09c7.31,4.28,33.48,20.48,39.87,34.7h-11.26s2.59,5.65,11.26,7.64,31.06,3.9,50.92,12.61,29.68,8.71,29.68,8.71-21.69,7-27.4,9.52a15.83,15.83,0,0,0-7.75,7c.26-.11,10-4.32,13.46-3s17.58,17.66,27.17,25.46S1631.13,1123.38,1719.4,1126.75Z" transform="translate(-268.67 -383.91)"/><path class="cls-1" d="M646.66,887.35s-18.49-2.51-30.82,1.14c0,0,11.42,5.5,30.82,5A5,5,0,0,1,646.66,887.35Zm-11.11-25.77c2.13,3.66,17.82,23.33,17.82,23.33,2.57-3.81,5.77-3,5.77-3C649.4,864.63,635.55,861.58,635.55,861.58Zm364.76,650.71c-68.23.56-93.68-32.63-93.68-32.63,17.42,41.72,89.4,40.09,93.68,40h.57v-7.34Z" transform="translate(-268.67 -383.91)"/><path class="cls-1" d="M1424.89,1015c-74.89-53.08-129.22-55.36-160.74-56.74-14.28-.62-32.22,4.77-50.92,9.11l-.22,0-2.58.59h0c-21.71,4.88-44.25,7.86-63.16-2-29.88-15.54-33.75-10.36-55-18.52l-.66-.26c-.87-.34-1.78-.71-2.72-1.1l-.65-.27q-2.3-1-4.89-2.16l-.89-.41-2.65-1.26-1.09-.53-2.24-1.1c-35-17.54-71.24-16.59-74.2-16.48h-2c-3-.11-39.19-1.06-74.2,16.48l-2.24,1.1-1.09.53-2.65,1.26-.89.41q-2.6,1.18-4.89,2.16l-.65.27c-.94.39-1.85.76-2.72,1.1l-.66.26c-21.23,8.16-25.1,3-55,18.52-18.91,9.83-41.45,6.85-63.16,2h0l-2.58-.59-.22,0c-18.7-4.34-36.64-9.73-50.92-9.11-31.52,1.38-85.85,3.66-160.74,56.74,0,0-19.32,11.74-12.32,29.74s61.79,162.86,61.79,162.86-40.72,43.48-30.81,119.27c.09.72.19,1.44.29,2.16,0,.19.05.38.08.57.16,1.07.33,2.12.53,3.16.05.3.11.6.17.89a76,76,0,0,0,3.23,11.54c.25.7.52,1.39.79,2.08.16.39.31.77.48,1.15s.28.66.43,1c26.35,60.42,125.8,72.68,164.23,58.27h0c-.72-1-27.87-37.26-18.85-63.73,9.13-26.85,49-71.37,96.8-71.07s84.94,30.8,95.28,63.74,8.1,49.11-5.09,62.68l-1,.36-.36.13c-31.75,11.45-69.37,12.47-69.37,12.47,14.91,2.14,52.66-.91,78.85-5.48s36.22-13.73,42.61-8.85c5.83,4.46,13.52,3.32,14.84,3.09h.2l.37.06h.84l.37-.06h.2c1.32.23,9,1.37,14.84-3.09,6.39-4.88,16.44,4.27,42.61,8.85s63.94,7.62,78.85,5.48c0,0-37.62-1-69.37-12.47l-.36-.13-1-.36c-13.19-13.57-15.44-29.74-5.09-62.68s47.48-63.43,95.28-63.74,87.67,44.22,96.8,71.07c9,26.47-18.13,62.76-18.85,63.73h0c38.43,14.41,137.88,2.15,164.23-58.27.15-.33.29-.66.43-1s.32-.76.48-1.15c.27-.69.54-1.38.79-2.08a76,76,0,0,0,3.23-11.54c.06-.29.12-.59.17-.89.2-1,.37-2.09.53-3.16,0-.19.06-.38.08-.57.1-.72.2-1.44.29-2.16,9.91-75.79-30.81-119.27-30.81-119.27s54.79-144.88,61.79-162.86S1424.89,1015,1424.89,1015ZM945.1,1256.85s-.25.74-.25.76c-.18.61-.77,2.7-1.26,5.31-.06.32-.11.64-.17,1a2,2,0,0,1-1,1.4,2,2,0,0,1-.48.2c-10.78,2.85-21.16,14.75-25.13,19.73l-.71.91-1.39-2.93-4.63-9.77v0c5.31-5.3,22.46-13.78,31.11-16.45l.08,0a19.66,19.66,0,0,1,3.23-.76l.85-.09C945.22,1256.47,945.14,1256.73,945.1,1256.85Zm147.4,16.58-4.63,9.77-1.39,2.93-.71-.91c-4-5-14.35-16.88-25.13-19.73a2,2,0,0,1-.48-.2,2,2,0,0,1-1-1.4c-.06-.33-.11-.65-.17-1-.49-2.61-1.08-4.7-1.26-5.31,0,0-.23-.72-.25-.76s-.12-.38-.26-.77l.85.09a19.66,19.66,0,0,1,3.23.76l.08,0c8.65,2.67,25.8,11.15,31.11,16.45Z" transform="translate(-268.67 -383.91)"/><path class="cls-4" d="M1426.55,1012.52c-75.53-53.42-129.83-55.79-162.28-57.2h-.17c-.8,0-1.6,0-2.42,0-11.3,0-24.46,3.22-38.38,6.62-15.59,3.81-31.71,7.75-47.13,7.75-11.11,0-20.48-2.06-28.64-6.3-18.59-9.65-27.55-11.49-36.22-13.27a110,110,0,0,1-18.27-5l-1.58-.61-1.84-.73-1.51-.63c-1.41-.6-2.9-1.25-4.52-2l-1.21-.55-2.74-1.3-1-.47-2.24-1.11c-31.11-15.56-63.44-16.77-72.61-16.77l-2.06,0h-.9l-2.06,0c-9.17,0-41.5,1.21-72.61,16.77l-2.24,1.11-1,.47-2.74,1.3-1.21.55c-1.62.74-3.11,1.39-4.52,2l-1.51.63-1.84.73-1.58.61a110,110,0,0,1-18.27,5c-8.67,1.78-17.63,3.62-36.22,13.27-8.16,4.24-17.53,6.3-28.64,6.3-15.42,0-31.54-3.94-47.13-7.75-13.92-3.4-27.08-6.62-38.38-6.62-.82,0-1.62,0-2.42,0h-.17c-32.45,1.41-86.75,3.78-162.28,57.2-1.36.85-20.46,13.4-13.14,32.2,6.62,17,56.45,148.45,61.63,162.11-2.7,3.12-11.3,13.81-19,31.49-8.35,19.18-17.1,50.52-11.35,90.84v0c0,.22.06.45.09.65.2,1.37.41,2.63.65,3.83,0,.11,0,.22.07.33a79.38,79.38,0,0,0,4,13.55l.18.46c.21.51.42,1,.65,1.53.09.23.19.45.29.67,9.24,21.15,28.29,38.48,55.07,50.11,21.94,9.52,49,15,74.14,15,15,0,28.6-2,38.27-5.61a2,2,0,0,0,1.27-2.23,2.06,2.06,0,0,0-.49-1c-2-2.76-27-37.27-18.55-61.9,8.55-25.09,47.56-69.89,94.86-69.89h.47c48.76.31,84.09,31.68,93.79,62.5,9.84,31.28,8.63,47.2-4.64,60.84a2,2,0,0,0-.54,1.64l13.35-6.31c8.24-4.35,18.57-10.07,23.48-13.86l17.17-1.16a2,2,0,0,0,1.33-.63l9.17-9.79a2,2,0,0,0,.54-1.37v-16.2a2,2,0,0,0-.73-1.55l-23.89-19.56,6.78-8.85a2,2,0,0,0,.19-2.12c-.33-.67-8.45-16.23-29.39-16.23a55.53,55.53,0,0,0-20.33,4.3l-15.29-20.19-1.39-2.93-4.63-9.77v0c5.31-5.3,22.46-13.78,31.11-16.45l.08,0a19.66,19.66,0,0,1,3.23-.76l.85-.09c.23-.69.61-1.78,1.18-3.28l.27-.74c1.63-4.18,3.51-8.39,5.59-12.53.46-.9.93-1.82,1.42-2.75,1.89-3.55,3.92-7,6-10.24,10.61-16.33,23.17-27.64,37.33-33.63l.08,0c.81-.34,1.66-.67,2.57-1l.2-.07.78-.28.07,0,.42.15.42-.15.07,0,.78.28.2.07c.91.34,1.76.67,2.57,1l.08,0c14.16,6,26.72,17.3,37.33,33.63,2.11,3.24,4.14,6.69,6,10.24.49.93,1,1.85,1.42,2.75,2.08,4.14,4,8.35,5.59,12.53l.27.74c.57,1.5,1,2.59,1.18,3.28l.85.09a19.66,19.66,0,0,1,3.23.76l.08,0c8.65,2.67,25.8,11.15,31.11,16.45v0l-4.63,9.77-1.39,2.93-15.29,20.19a55.53,55.53,0,0,0-20.33-4.3c-20.94,0-29.06,15.56-29.39,16.23a2,2,0,0,0,.19,2.12l6.78,8.85-23.89,19.56a2,2,0,0,0-.73,1.55v16.2a2,2,0,0,0,.54,1.37l9.17,9.79a2,2,0,0,0,1.33.63l17.17,1.16c4.91,3.79,15.24,9.51,23.48,13.86l13.35,6.31a2,2,0,0,0-.54-1.64c-13.27-13.64-14.48-29.56-4.64-60.84,9.7-30.82,45-62.19,93.79-62.5h.47c47.3,0,86.31,44.8,94.86,69.89,8.4,24.63-16.51,59.14-18.55,61.9a2.06,2.06,0,0,0-.49,1,2,2,0,0,0,1.27,2.23c9.67,3.62,23.26,5.61,38.27,5.61,25.18,0,52.2-5.46,74.14-15,26.78-11.63,45.83-29,55.07-50.11.1-.22.2-.44.29-.67.23-.5.44-1,.65-1.53l.18-.46a79.38,79.38,0,0,0,4-13.55c0-.11,0-.22.07-.33.24-1.2.45-2.46.65-3.83,0-.2.07-.43.09-.65v0c5.75-40.32-3-71.66-11.35-90.84-7.69-17.68-16.29-28.37-19-31.49,5.18-13.66,55-145.14,61.63-162.11C1447,1025.92,1427.91,1013.37,1426.55,1012.52ZM917.66,1204.18c-.5,1.21-11.81,28.84-8.65,62.12-.66-.46-1.34-.91-2-1.35l-1.54-1a81.58,81.58,0,0,0-11-5.62,106.17,106.17,0,0,0-13.08-4.52h0a149.71,149.71,0,0,0-27.18-4.74l-15.75-6.48a2,2,0,0,0-.76-.16l-.21,0L756.85,1251a2,2,0,0,0-1.62,1.18l-20,45.71-.09.24-1.89,6.48v0l-2.28,7.8a188.38,188.38,0,0,1,1.18-22.56c.1-.85.2-1.68.31-2.51,5.69-43.89,26.65-65,42-77.07,6.26-4.91,12.42-8.87,17.85-12.37l1-.65c23.61-15.17,108.06-51.19,119.74-56.14,4.1,23.95,6,52,6.39,58.67C918.86,1201.19,918.26,1202.62,917.66,1204.18Zm156.06-21c-18.61-26.12-45.68-34.09-61.51-36.5l-1.47-.22c-1.13-.16-2.28-.3-3.43-.42-.76-.08-1.52-.14-2.28-.2l-1.75-.1a2,2,0,0,0-.49-.07h-3a2,2,0,0,0-.49.07l-1.75.1c-.76.06-1.52.12-2.28.2-1.15.12-2.3.26-3.43.42l-1.47.22c-15.83,2.41-42.9,10.38-61.51,36.5l-4.59-32.37,2.4,2a1.89,1.89,0,0,0,1.24.45A2.14,2.14,0,0,0,929,1153a2.06,2.06,0,0,0,.94-2.16s0-.1,0-.11c-8.12-35.5-19.21-66-33-90.75q-1.74-3.12-3.51-6.09l-.23-.37c-1.46-2.44-2.94-4.8-4.42-7.07,2-34,12-61.33,29.68-81.2.57-.63,1.14-1.26,1.72-1.88l1-1c.57-.6,1.15-1.18,1.74-1.76l.29-.28c.67-.66,1.3-1.25,1.91-1.82l.46-.41c.62-.58,1.24-1.13,1.88-1.68,28-24.35,62.08-26.76,72.21-26.9h.26l.9,0h1l.9,0h.26c10.13.14,44.18,2.55,72.21,26.9.64.55,1.26,1.1,1.88,1.68l.46.41c.61.57,1.24,1.16,1.91,1.82l.29.28c.59.58,1.17,1.16,1.74,1.76l1,1c.58.62,1.15,1.25,1.72,1.88,17.72,19.87,27.7,47.17,29.68,81.2-1.48,2.27-3,4.63-4.42,7.07l-.23.37q-1.77,3-3.51,6.09c-13.75,24.71-24.84,55.25-33,90.75,0,0,0,.09,0,.11a2.06,2.06,0,0,0,.94,2.16,2.14,2.14,0,0,0,1.06.29,1.89,1.89,0,0,0,1.24-.45l2.4-2Zm195.67,121.53v0l-1.89-6.48-.09-.24-20-45.71a2,2,0,0,0-1.62-1.18l-80.56-8.56-.21,0a2,2,0,0,0-.76.16l-15.75,6.48a149.71,149.71,0,0,0-27.18,4.74h0a106.17,106.17,0,0,0-13.08,4.52,81.58,81.58,0,0,0-11,5.62l-1.54,1c-.69.44-1.37.89-2,1.35,3.16-33.28-8.15-60.91-8.65-62.12-.6-1.56-1.2-3-1.79-4.34.4-6.67,2.29-34.72,6.39-58.67,11.68,4.95,96.13,41,119.74,56.14l1,.65c5.43,3.5,11.59,7.46,17.85,12.37,15.39,12.09,36.35,33.18,42,77.07.11.83.21,1.66.31,2.51a188.38,188.38,0,0,1,1.18,22.56Z" transform="translate(-268.67 -383.91)"/><path class="cls-5" d="M1000,959.59h-.14v0Z" transform="translate(-268.67 -383.91)"/><path class="cls-6" d="M1001.3,1147.66v41.9c-.42-.15-.84-.3-1.27-.43l-.07,0h0l-.1,0v-41.43h.2C1000.27,1147.63,1000.69,1147.63,1001.3,1147.66Z" transform="translate(-268.67 -383.91)"/><path class="cls-7" d="M1001.3,1259.46l-1.27.18h-.2v-70.61l.1,0h0l.07,0c.43.13.85.28,1.27.43Z" transform="translate(-268.67 -383.91)"/><path class="cls-8" d="M1001.3,1275v51.83l-.37-.19a3.47,3.47,0,0,0-1.1-.23v-51.56l1,.1h0Z" transform="translate(-268.67 -383.91)"/><path class="cls-7" d="M330.05,401s12.54,43.72,18,59.93,18,44.94,24.16,58.08,15.89,45.25,56.86,77.05c0,0-15,1.38-23.08,4.43,0,0,26,22.47,35.62,40.82,0,0-1.23-32.41-4-68.18s-2.75-68.64-2.75-68.64,8.87-9.17,11.31-13.3,15.9.77,25.53,6.88c0,0-39.9-40.51-44.79-66.8,0,0-2.29,29.35.46,48.61,0,0-9-8.1-19.87-22.78S366.13,414.94,330.05,401Z" transform="translate(-268.67 -383.91)"/><path class="cls-6" d="M467.22,678.53,461.67,667s-8.48-82.78-11-99.29,2.9-47.69,2.9-47.69a28.25,28.25,0,0,1,9.48,2.83c4.13,2.29,7.34,7.49,7.34,7.49l6.22-6.42a26.87,26.87,0,0,1,10.74,3.67c5.2,3.21,99.52,71.23,129.79,109.45l-20-1.84,12.45,6.34,37.08,4.67S539.37,540.75,450,501c0,0-2.54,3.05-2.54,36.38s7,111.29,8.56,133l14.37,39.14L502.49,695Z" transform="translate(-268.67 -383.91)"/><path class="cls-5" d="M1000,959.58v0h0Z" transform="translate(-268.67 -383.91)"/><path class="cls-9" d="M885,1047c0,.22,0,.44,0,.67" transform="translate(-268.67 -383.91)"/><path class="cls-10" d="M926.37,1209.69c-1.22-.91-6.42-8-6.42-8s0-.54-.09-1.53h0c-.42-7-2.38-36.64-6.81-61.44-.78-4.38-1.64-8.6-2.58-12.53,0,0-13.72-1.56-30.67-2.56a349.54,349.54,0,0,0-37.51-.5l-2.26.11c-21.37,1-56.68.37-88.32-16.7a113.78,113.78,0,0,1-16.31-10.64,112.55,112.55,0,0,1-13.26-12.21s-1.2-1.3-3.23-3.85c-6.61-8.28-22-29.75-33.61-62.49,0,0-4-13.61-8.41-13.76,0,0,129.71-76,208.25,43.35q4.33,6.57,8.44,14c13,23.39,24.27,53,32.79,90.37l-6.42-5.51L926,1188.6l.35,2.44S927.59,1210.61,926.37,1209.69Z" transform="translate(-268.67 -383.91)"/><path class="cls-11" d="M686.54,1005.47c-.26-1.2,13.76-1.84,22,0,0,0-7.34,7.79-8.56,21.85C700,1027.32,691.58,1028.39,686.54,1005.47Z" transform="translate(-268.67 -383.91)"/><path class="cls-12" d="M785.81,1026.89c-1.48-.29-2.94-.56-4.39-.81-45.83-8.07-75,.84-76.23,1.24.32-9.76,3.21-24.34,16.66-30.57,16.95-7.86,46.44-5.55,57.37-4.34,2.67.29,4.23.52,4.23.52S783.7,1008.37,785.81,1026.89Z" transform="translate(-268.67 -383.91)"/><path class="cls-12" d="M882.22,1066.12a324.28,324.28,0,0,0-37.3-20c-1.45-.67-2.9-1.31-4.33-1.93,4-11.36,6.45-20.66,6.61-21.59,0,0,1.32,1.39,3.45,3.67,8.28,8.89,28.77,31.4,31.32,39.06C882.06,1065.57,882.14,1065.84,882.22,1066.12Z" transform="translate(-268.67 -383.91)"/><path class="cls-13" d="M883.58,1098.1s-16.74,22.47-65.81,20.87-102.95-32.33-112.13-82.09a55,55,0,0,1-.45-9.56c1.29-.41,32.27-9.88,80.62-.43,2.59,22.91,8,50.55,19.35,59.59,13.62,10.88,27.52-19.75,35.43-42.31a323.13,323.13,0,0,1,41.63,21.95C885.09,1076.17,883.58,1098.1,883.58,1098.1Z" transform="translate(-268.67 -383.91)"/><path class="cls-1" d="M587.48,1335.35s22-23.08,36.23-17.58C623.71,1317.77,624.25,1327.78,587.48,1335.35Z" transform="translate(-268.67 -383.91)"/><path class="cls-1" d="M627.46,1330.08s-11-2.14-31.5,20.71C596,1350.79,626.54,1341.77,627.46,1330.08Z" transform="translate(-268.67 -383.91)"/><path class="cls-1" d="M597,1112.55s24.07,46.77,29.81,81.86c0,0-25.91-58.24-33-77.05,0,0-1.72-4.7-.27-5.73A2.38,2.38,0,0,1,597,1112.55Z" transform="translate(-268.67 -383.91)"/><path class="cls-1" d="M624.32,1149.62s9.48,11.16,12.23,24.61,3.06,34.7,3.06,34.7S628.6,1160.47,624.32,1149.62Z" transform="translate(-268.67 -383.91)"/><path class="cls-1" d="M649.39,1189.82s7,7.8,8.1,18.19-4,24.31-4,24.31S656.27,1214.59,649.39,1189.82Z" transform="translate(-268.67 -383.91)"/><path class="cls-1" d="M727.81,1329.24s2.14,58.7,37.3,78.57c0,0-28.74-5.2-41.88-63s12.23-58.09,12.23-58.09l-3.37,26.9Z" transform="translate(-268.67 -383.91)"/><path class="cls-14" d="M912.91,1138.76h-1s-95.69,40.36-121.38,56.87c-5.7,3.67-12.29,7.85-19,13.13-36.71-39.35-149.14-56-149.14-56,14.81-32.12,80.84-65.12,96.44-72.92,2,2.55,3.23,3.85,3.23,3.85a112.55,112.55,0,0,0,13.26,12.21,113.78,113.78,0,0,0,16.31,10.64c31.64,17.07,66.95,17.72,88.32,16.7l2.26-.11a349.54,349.54,0,0,1,37.51.5c17,1,30.67,2.56,30.67,2.56C911.27,1130.16,912.13,1134.38,912.91,1138.76Z" transform="translate(-268.67 -383.91)"/><path class="cls-15" d="M751.57,1106.58c-14.31,7-68,32.64-69,33.09,10.89-18.32,44.13-38.69,52.69-43.73A113.78,113.78,0,0,0,751.57,1106.58Z" transform="translate(-268.67 -383.91)"/><path class="cls-16" d="M839.89,1123.28l-57,43c-39.74-25.38-100.28-26.6-100.28-26.6h0c1-.45,54.69-26.05,69-33.09C783.21,1123.65,818.52,1124.3,839.89,1123.28Z" transform="translate(-268.67 -383.91)"/><path class="cls-15" d="M879.66,1123.67l-96.82,42.61,57-43,2.26-.11A349.54,349.54,0,0,1,879.66,1123.67Z" transform="translate(-268.67 -383.91)"/><path class="cls-11" d="M891.38,1090.76s8,14.39,8.56,28.29c0,0-40.89-1.08-30.46-1.34C870.63,1117.68,890.12,1105.9,891.38,1090.76Z" transform="translate(-268.67 -383.91)"/><path class="cls-17" d="M838.64,840.37s8.87-3.52,14.83,4.28,9.17,4.59,17.58,21.25,11.46,44.33,11.77,50.6-7.19,13.14-13.45,1.22-20.34-46.32-26.6-55S832.83,843.12,838.64,840.37Z" transform="translate(-268.67 -383.91)"/><path class="cls-1" d="M840,846.56s27.51,23.62,35.54,73.83Z" transform="translate(-268.67 -383.91)"/><path class="cls-1" d="M695.79,963.5s27.59-8,46.54,3.44C742.33,966.94,726.13,962.51,695.79,963.5Z" transform="translate(-268.67 -383.91)"/><path class="cls-1" d="M691.28,975.2s8.86-9.79,26.14-5.51C717.42,969.69,709,969.39,691.28,975.2Z" transform="translate(-268.67 -383.91)"/><path class="cls-1" d="M848.88,995.53s-35.35-26.29-68.12-29.35c0,0,39.84,16.05,66.13,31.49Z" transform="translate(-268.67 -383.91)"/><path class="cls-1" d="M712.53,1086.41s-13.07-.12-21.21,8.83c0,0,18.11-2.76,21.21-2Z" transform="translate(-268.67 -383.91)"/><path class="cls-1" d="M719.86,1099.25s-10.2,4.47-16.62,11.23c0,0,15.33-5.82,19.65-6.81Z" transform="translate(-268.67 -383.91)"/><path class="cls-11" d="M494,945.62s1.61-8.26,3.44-24.54,2.75-49.3,1.84-71.31-13-97.45-17.58-117v14.07s-5.51-26-11.31-37.3c0,0-6.12-60.23-8.57-82.86s-14.06-85.91-4.58-104.25l19.37,1.53S617.44,639.5,624.17,660.29c0,0-1.87,3-.84,8l3.32-2.75S643.28,684.22,660.7,717c0,0,17.74,30,22,35.46s1.83,11.31.91,16.36-6.42,47.85-5.65,71.54c0,0-7.65,0-10.4-6.12,0,0-2.63-5.92,3.56-6.84,0,0,1-48.65,4.85-58.12l-4.59-3.37-2,5.2s.46,25.84-.16,33.78c0,0-17-57.4-40-81.24,0,0,31,58.47,38.06,89.88l.12,10.09s-3.1,2.06-2.87,8.37c0,0-.23-19.83-6.42-34.51s-26.83-55.26-34.16-69-20.87-31.87-25.46-42.42-23.38-28.43-23.38-28.43l-7.57,6.19s6.42,29.35,12.15,49.76c0,0-9.25-14-18.27-13.53s-11,7-12.53,11.31-7.49,22.32-19.11,33-19.72,9.94-24.31,13-3.36,10.25-.61,20.95,10.55,32.86,11.62,54.42-.15,46.62-.15,46.62,25.83,24.76,28.89,32.71,8.1,13.61,8.1,19.42-4.74,9.93-4.58,19.11,10.08,6.88,14.21,5,19.11-9.17,19.11-9.17S548,967.1,539.48,979.94c0,0-3.29,6.84-8.79,8s-10.78-7.1-15-13.41-19.95-24.19-19.95-24.19A5.32,5.32,0,0,1,494,945.62Z" transform="translate(-268.67 -383.91)"/><path class="cls-18" d="M603.38,817.42S585.65,730,583.51,726.31s-19-21.71-19-21.71-5.2-3.36-8.1,4.28-12.84,30-23.24,38.37-11.92,8.72-17.58,9.63-6.57,4.74-6.26,9,10.24,39.44,12.07,47.54,4.59,35,3.52,45.25-1.38,23.09-1.38,23.09,31.8,29.19,33.48,44.48c0,0,6.12-10.7,11.92-13.15,0,0-26-7.33-32.86-26.29A82.82,82.82,0,0,1,533.06,865c-.15-12.69.46-79.34.46-83.92s3.51-8.1,7.49-7.34,38.06,19.11,41,21.71S603.38,817.42,603.38,817.42Z" transform="translate(-268.67 -383.91)"/><path class="cls-19" d="M705.19,1027.32h0" transform="translate(-268.67 -383.91)"/><path class="cls-8" d="M1077.65,1284.7l-8.26,16.34-.47-.16-.48-.16a76.45,76.45,0,0,0-12.55-2.81l-.16,0c-2-.23-23.79-2.21-35.21,15a36.85,36.85,0,0,0-3.52,9.5h2.88l2.55,3.8L1005,1338.41s.83-10.11-3.29-11.8c-.12,0-.24-.09-.37-.12s-.25.08-.37.12c-4.12,1.69-3.29,11.8-3.29,11.8l-17.47-12.25,2.55-3.8h2.88a36.85,36.85,0,0,0-3.52-9.5c-11.42-17.18-33.16-15.2-35.21-15l-.16,0a76.45,76.45,0,0,0-12.55,2.81l-.48.16-.47.16L925,1284.7s11.1-10.64,25-11.64H950c4.33-.17,8.4.29,11.45,1.76,9.48,4.59,17.43,5.5,25.07,3.06a76.16,76.16,0,0,1,13.27-2.83l1-.12h0l.37,0,.37,0h.05l1,.12a76.16,76.16,0,0,1,13.27,2.83c7.64,2.44,15.59,1.53,25.07-3.06,3.05-1.47,7.12-1.93,11.45-1.76h.07C1066.55,1274.06,1077.65,1284.7,1077.65,1284.7Z" transform="translate(-268.67 -383.91)"/><path class="cls-1" d="M927.84,1335.36s-4.47-6.92-16.4-8.76-3.32,2.34-.45,4.38,7.28,4.74,9.51,6.57S929.79,1340.09,927.84,1335.36Z" transform="translate(-268.67 -383.91)"/><path class="cls-1" d="M896.31,1324.77s-1.09-4.41-5.39-4.41-6.59-.23-6.36.68,4.76,2.18,6.42,3.33S897.11,1326.56,896.31,1324.77Z" transform="translate(-268.67 -383.91)"/><path class="cls-1" d="M872.29,1317.89s-24.71-12-32.58-12-18.88,1.53-20.86,3.29.07,3.51,4,3.51,20.4-.07,30.34,3.29,17,4.27,18.34,4.31S874.8,1319.08,872.29,1317.89Z" transform="translate(-268.67 -383.91)"/><path class="cls-1" d="M813.27,1310.59s-13.23-.23-20.11,1-15.89,5.5-17,6.64-1.46,4.82,1.6,4.06,11.68-5.58,16.54-6.42,13.58-.77,15.64-1.46S816.55,1310.61,813.27,1310.59Z" transform="translate(-268.67 -383.91)"/><path class="cls-1" d="M920.5,1365.62s-2.9-3.67-9.78-2.75-21.86.47-24.77,1.3-1.52,4,1.69,4.82,20.48,2,23.69,2S923.41,1369.9,920.5,1365.62Z" transform="translate(-268.67 -383.91)"/><path class="cls-1" d="M867.42,1366.85a30.23,30.23,0,0,0-4.47-3c-3.33-1.95-5.85-.46-4.13.91s3.33,3.21,5.5,3.9S869.14,1368.11,867.42,1366.85Z" transform="translate(-268.67 -383.91)"/><path class="cls-1" d="M851.94,1362.93s-4.58-2.39-7.79-4.11-7.8-.69-10.55.92-8.37,2.18-12.27,1.83-12.38-2.41-16.17-2.18-10.43-1.83-14.44-3.21-11.7-1-11.47,1.38,8.72,6.19,12.16,7.22,16.85-.11,21.67,0,9.86-.8,14.33-.69,12.36-2.52,18.39-.57S853.85,1363.93,851.94,1362.93Z" transform="translate(-268.67 -383.91)"/><path class="cls-1" d="M777.42,1361.11s-.69-2.63-3.1-2.63-4.7-.58-4.7,1.32,2.75,2.88,4.47,3.13S778.64,1363.06,777.42,1361.11Z" transform="translate(-268.67 -383.91)"/><path class="cls-20" d="M919.71,1200.2h0q-1,2.3-2,4.74s-12.8,30.55-8,65.74c-29.86-24-82.1-20-82.1-20-69.1,11-99.8,78.58-99.8,78.58-5.08-70.09,19.24-102,42.89-120.48,6.75-5.28,13.38-9.46,19.11-13.13,25.82-16.51,122-56.87,122-56.87h1.05C917.32,1163.56,919.29,1193.18,919.71,1200.2Z" transform="translate(-268.67 -383.91)"/><path class="cls-1" d="M906.77,1261.25s-16.28-11-34.93-13.23c0,0,19.87,12.31,32,19.19Z" transform="translate(-268.67 -383.91)"/><path class="cls-1" d="M916.12,1286.13a22.55,22.55,0,0,1-1.67-2.65,76.76,76.76,0,0,1-4.35-10l4.63,9.77Z" transform="translate(-268.67 -383.91)"/><line class="cls-21" x1="678.42" y1="1009.43" x2="665.07" y2="1015.74"/><path class="cls-10" d="M712.53,1071.26s7.18,10.06,8,11.09a123.29,123.29,0,0,0,12.56,12.12,141.56,141.56,0,0,0,16.39,11.24c4.76,2.84,15.88,7.6,21.53,9.49a154.68,154.68,0,0,0,25.11,6.19,211.49,211.49,0,0,0,27.51,2.35c7.74.17,17.4-.29,19.09-.4s17.2-.58,26.37,0,17.14.74,25.31,1.57,15.79,1.58,15.79,1.58,2.18,10.61,2.58,12.76,2,12.32,2.1,13.29,1.11,8.23,1.23,9.29,1.2,11.27,1.29,12.15.89,9,1,10.87.66,8.37.72,9l.49,6.49.29-.64.51-13-1.21-24-2.61-23.42-3.29-15.79-11.84-1.2-7.34.26-23.27-1.21-27.63-.57H822.61L806,1120l-17.83-2.41-24.77-8-21.32-13.3-23.62-21.1-4.24-5Z" transform="translate(-268.67 -383.91)"/><polygon class="cls-10" points="650.78 763.4 658.02 768.91 657.58 766.86 652.6 758.58 649.73 758.8 649.39 761.5 650.78 763.4"/><path class="cls-1" d="M1355.94,893.53c19.4.46,30.82-5,30.82-5-12.33-3.65-30.82-1.14-30.82-1.14A5,5,0,0,1,1355.94,893.53Zm-12.48-11.67s3.2-.76,5.77,3c0,0,15.69-19.67,17.82-23.33C1367.05,861.58,1353.2,864.63,1343.46,881.86Zm-341.74,630.43v7.34h.57c4.28.13,76.26,1.76,93.68-40,0,0-25.45,33.19-93.68,32.63Z" transform="translate(-268.67 -383.91)"/><path class="cls-5" d="M1002.63,959.59h.14v0Z" transform="translate(-268.67 -383.91)"/><path class="cls-6" d="M1001.3,1147.66v41.9c.42-.15.84-.3,1.27-.43l.07,0h0l.1,0v-41.43h-.2C1002.33,1147.63,1001.91,1147.63,1001.3,1147.66Z" transform="translate(-268.67 -383.91)"/><path class="cls-7" d="M1002.77,1189.06v.07l-.12,0h0Z" transform="translate(-268.67 -383.91)"/><path class="cls-7" d="M1002.67,1259.66l.1,0v0Z" transform="translate(-268.67 -383.91)"/><path class="cls-8" d="M1001.3,1275v51.83l.37-.19a3.47,3.47,0,0,1,1.1-.23v-51.56l-1,.1h-.05Z" transform="translate(-268.67 -383.91)"/><path class="cls-7" d="M1672.54,401s-12.53,43.72-18,59.93-18,44.94-24.16,58.08-15.9,45.25-56.86,77.05c0,0,15,1.38,23.08,4.43,0,0-26,22.47-35.62,40.82,0,0,1.22-32.41,4-68.18s2.75-68.64,2.75-68.64-8.87-9.17-11.31-13.3-15.9.77-25.53,6.88c0,0,39.89-40.51,44.79-66.8,0,0,2.29,29.35-.46,48.61,0,0,9-8.1,19.87-22.78S1636.47,414.94,1672.54,401Z" transform="translate(-268.67 -383.91)"/><path class="cls-6" d="M1535.38,678.53l5.55-11.51s8.48-82.78,11-99.29S1549,520,1549,520a28.22,28.22,0,0,0-9.47,2.83c-4.13,2.29-7.34,7.49-7.34,7.49l-6.22-6.42a26.93,26.93,0,0,0-10.75,3.67c-5.19,3.21-99.51,71.23-129.78,109.45l20-1.84L1393,641.56,1356,646.23S1463.23,540.75,1552.6,501c0,0,2.54,3.05,2.54,36.38s-7,111.29-8.56,133l-14.37,39.14L1500.11,695Z" transform="translate(-268.67 -383.91)"/><path class="cls-5" d="M1118.11,1047.21q-4.24,6.43-8.27,13.63h0l-.21.37.16-.54.53-1.74c0-.07,0-.15,0-.22-.35-1.65-.72-3.26-1.11-4.85-23.86-99-101.92-94.76-106.39-94.44h-.2l-1.27-.07-1.27.07h-.2c-4.47-.32-82.53-4.61-106.39,94.44-.39,1.59-.76,3.2-1.11,4.85,0,.07,0,.15-.05.22l.53,1.74.16.54-.21-.37h0q-4-7.2-8.27-13.63c0-.06,0-.13,0-.19,0-.31,0-.61,0-.91h0c2.41-40,15.5-66.63,32.06-84.26l.19-.2h0c.86-.91,1.71-1.77,2.58-2.62l.2-.19c.82-.83,1.66-1.61,2.5-2.38l.25-.23c.56-.52,1.13-1,1.7-1.5l.26-.22c32.79-28.3,74-27.33,75.69-27.28h2.64c1.68-.05,42.9-1,75.69,27.28l.26.22c.57.49,1.14,1,1.7,1.5l.25.23c.84.77,1.68,1.55,2.5,2.38l.2.19c.87.85,1.72,1.71,2.58,2.62h0l.19.2c16.56,17.63,29.65,44.21,32.06,84.26h0c0,.3,0,.6,0,.91C1118.1,1047.08,1118.11,1047.15,1118.11,1047.21Z" transform="translate(-268.67 -383.91)"/><path class="cls-5" d="M1002.57,959.58v0h0Z" transform="translate(-268.67 -383.91)"/><path class="cls-9" d="M1117.59,1047c0,.22,0,.44,0,.67" transform="translate(-268.67 -383.91)"/><path class="cls-10" d="M1076.23,1209.69c1.22-.91,6.42-8,6.42-8s0-.54.09-1.53h0c.42-7,2.38-36.64,6.81-61.44.78-4.38,1.64-8.6,2.58-12.53,0,0,13.72-1.56,30.67-2.56a349.54,349.54,0,0,1,37.51-.5l2.26.11c21.37,1,56.68.37,88.32-16.7a113.78,113.78,0,0,0,16.31-10.64,112.55,112.55,0,0,0,13.26-12.21s1.2-1.3,3.23-3.85c6.61-8.28,22-29.75,33.61-62.49,0,0,4-13.61,8.41-13.76,0,0-129.71-76-208.25,43.35q-4.34,6.57-8.44,14c-13,23.39-24.27,53-32.79,90.37l6.42-5.51-6.07,42.81-.35,2.44S1075,1210.61,1076.23,1209.69Z" transform="translate(-268.67 -383.91)"/><path class="cls-11" d="M1316.06,1005.47c.26-1.2-13.76-1.84-22,0,0,0,7.33,7.79,8.56,21.85C1302.61,1027.32,1311,1028.39,1316.06,1005.47Z" transform="translate(-268.67 -383.91)"/><path class="cls-12" d="M1297.4,1027.32c-1.25-.4-30.4-9.31-76.23-1.24-1.45.25-2.91.52-4.39.81,2.11-18.52,2.36-34,2.36-34s1.56-.23,4.23-.52c10.93-1.21,40.42-3.52,57.37,4.34C1294.19,1003,1297.08,1017.56,1297.4,1027.32Z" transform="translate(-268.67 -383.91)"/><path class="cls-12" d="M1162,1044.17c-1.43.62-2.88,1.26-4.33,1.93a324.28,324.28,0,0,0-37.3,20c.08-.28.16-.55.25-.81,2.55-7.66,23-30.17,31.32-39.06,2.13-2.28,3.45-3.67,3.45-3.67C1155.55,1023.51,1158,1032.81,1162,1044.17Z" transform="translate(-268.67 -383.91)"/><path class="cls-13" d="M1119,1098.1s16.74,22.47,65.81,20.87,103-32.33,112.13-82.09a55,55,0,0,0,.45-9.56c-1.29-.41-32.27-9.88-80.62-.43-2.59,22.91-8,50.55-19.35,59.59-13.62,10.88-27.52-19.75-35.43-42.31a323.13,323.13,0,0,0-41.63,21.95C1117.5,1076.17,1119,1098.1,1119,1098.1Z" transform="translate(-268.67 -383.91)"/><path class="cls-1" d="M1415.12,1335.35s-22-23.08-36.23-17.58C1378.89,1317.77,1378.35,1327.78,1415.12,1335.35Z" transform="translate(-268.67 -383.91)"/><path class="cls-1" d="M1375.14,1330.08s11-2.14,31.49,20.71C1406.63,1350.79,1376.06,1341.77,1375.14,1330.08Z" transform="translate(-268.67 -383.91)"/><path class="cls-1" d="M1405.64,1112.55s-24.08,46.77-29.81,81.86c0,0,25.91-58.24,33-77.05,0,0,1.72-4.7.27-5.73A2.37,2.37,0,0,0,1405.64,1112.55Z" transform="translate(-268.67 -383.91)"/><path class="cls-1" d="M1378.28,1149.62s-9.48,11.16-12.23,24.61-3.06,34.7-3.06,34.7S1374,1160.47,1378.28,1149.62Z" transform="translate(-268.67 -383.91)"/><path class="cls-1" d="M1353.21,1189.82s-7,7.8-8.11,18.19,4.05,24.31,4.05,24.31S1346.33,1214.59,1353.21,1189.82Z" transform="translate(-268.67 -383.91)"/><path class="cls-1" d="M1274.79,1329.24s-2.14,58.7-37.3,78.57c0,0,28.74-5.2,41.88-63s-12.23-58.09-12.23-58.09l3.37,26.9Z" transform="translate(-268.67 -383.91)"/><path class="cls-14" d="M1089.68,1138.76h1s95.69,40.36,121.38,56.87c5.7,3.67,12.29,7.85,19,13.13,36.71-39.35,149.14-56,149.14-56-14.81-32.12-80.84-65.12-96.44-72.92-2,2.55-3.23,3.85-3.23,3.85a112.55,112.55,0,0,1-13.26,12.21,113.78,113.78,0,0,1-16.31,10.64c-31.64,17.07-67,17.72-88.32,16.7l-2.26-.11a349.54,349.54,0,0,0-37.51.5c-17,1-30.67,2.56-30.67,2.56C1091.32,1130.16,1090.46,1134.38,1089.68,1138.76Z" transform="translate(-268.67 -383.91)"/><path class="cls-15" d="M1251,1106.58c14.31,7,68,32.64,69,33.09-10.89-18.32-44.13-38.69-52.69-43.73A113.78,113.78,0,0,1,1251,1106.58Z" transform="translate(-268.67 -383.91)"/><path class="cls-16" d="M1162.7,1123.28l57,43c39.74-25.38,100.28-26.6,100.28-26.6h0c-1-.45-54.69-26.05-69-33.09C1219.38,1123.65,1184.07,1124.3,1162.7,1123.28Z" transform="translate(-268.67 -383.91)"/><path class="cls-15" d="M1122.93,1123.67l96.82,42.61-57-43-2.26-.11A349.54,349.54,0,0,0,1122.93,1123.67Z" transform="translate(-268.67 -383.91)"/><path class="cls-11" d="M1111.22,1090.76s-8,14.39-8.56,28.29c0,0,40.89-1.08,30.46-1.34C1132,1117.68,1112.48,1105.9,1111.22,1090.76Z" transform="translate(-268.67 -383.91)"/><path class="cls-17" d="M1164,840.37s-8.87-3.52-14.83,4.28-9.17,4.59-17.58,21.25-11.47,44.33-11.77,50.6,7.18,13.14,13.45,1.22,20.33-46.32,26.6-55S1169.77,843.12,1164,840.37Z" transform="translate(-268.67 -383.91)"/><path class="cls-17" d="M1112.14,875.38s-10.55-4.36-15.75,6.53-8.41,15.78-12.23,26.79-5,39.75-5.5,43.57-2.87,13.53-3.56,18.11,0,11.06,5.51,1.61,10.32-23.62,17.88-38.41S1119.93,877.48,1112.14,875.38Z" transform="translate(-268.67 -383.91)"/><path class="cls-1" d="M1162.58,846.56s-27.51,23.62-35.54,73.83Z" transform="translate(-268.67 -383.91)"/><path class="cls-1" d="M1108.93,881s-10.55-17.43-31.88,91C1077.05,972,1115.8,888.75,1108.93,881Z" transform="translate(-268.67 -383.91)"/><path class="cls-1" d="M1306.81,963.5s-27.59-8-46.55,3.44C1260.26,966.94,1276.47,962.51,1306.81,963.5Z" transform="translate(-268.67 -383.91)"/><path class="cls-1" d="M1311.32,975.2s-8.87-9.79-26.14-5.51C1285.18,969.69,1293.59,969.39,1311.32,975.2Z" transform="translate(-268.67 -383.91)"/><path class="cls-1" d="M1153.72,995.53s35.35-26.29,68.12-29.35c0,0-39.84,16.05-66.14,31.49Z" transform="translate(-268.67 -383.91)"/><path class="cls-1" d="M1290.07,1086.41s13.07-.12,21.21,8.83c0,0-18.11-2.76-21.21-2Z" transform="translate(-268.67 -383.91)"/><path class="cls-1" d="M1282.73,1099.25s10.21,4.47,16.63,11.23c0,0-15.33-5.82-19.65-6.81Z" transform="translate(-268.67 -383.91)"/><path class="cls-11" d="M1508.59,945.62s-1.6-8.26-3.44-24.54-2.75-49.3-1.83-71.31,13-97.45,17.58-117v14.07s5.5-26,11.31-37.3c0,0,6.12-60.23,8.56-82.86s14.07-85.91,4.59-104.25L1526,523.94S1385.15,639.5,1378.43,660.29c0,0,1.87,3,.84,8l-3.33-2.75s-16.62,18.69-34,51.48c0,0-17.73,30-22,35.46s-1.83,11.31-.92,16.36,6.42,47.85,5.66,71.54c0,0,7.64,0,10.39-6.12,0,0,2.64-5.92-3.55-6.84,0,0-1-48.65-4.85-58.12l4.58-3.37,2,5.2s-.46,25.84.15,33.78c0,0,17.05-57.4,40-81.24,0,0-31,58.47-38.07,89.88l-.11,10.09s3.1,2.06,2.87,8.37c0,0,.23-19.83,6.42-34.51s26.82-55.26,34.16-69,20.87-31.87,25.45-42.42,23.39-28.43,23.39-28.43l7.57,6.19s-6.42,29.35-12.15,49.76c0,0,9.24-14,18.26-13.53s11,7,12.54,11.31,7.49,22.32,19.11,33,19.72,9.94,24.3,13,3.37,10.25.61,20.95-10.54,32.86-11.61,54.42.15,46.62.15,46.62-25.83,24.76-28.89,32.71-8.1,13.61-8.1,19.42,4.73,9.93,4.58,19.11-10.09,6.88-14.21,5-19.11-9.17-19.11-9.17,34.09,20.64,42.65,33.48c0,0,3.28,6.84,8.79,8s10.77-7.1,15-13.41,19.94-24.19,19.94-24.19A5.32,5.32,0,0,0,1508.59,945.62Z" transform="translate(-268.67 -383.91)"/><path class="cls-18" d="M1399.22,817.42S1417,730,1419.09,726.31s19-21.71,19-21.71,5.19-3.36,8.1,4.28,12.84,30,23.23,38.37,11.93,8.72,17.58,9.63,6.58,4.74,6.27,9-10.24,39.44-12.08,47.54-4.58,35-3.51,45.25,1.37,23.09,1.37,23.09-31.79,29.19-33.47,44.48c0,0-6.12-10.7-11.93-13.15,0,0,26-7.33,32.87-26.29a83.33,83.33,0,0,0,3.06-21.86c.15-12.69-.46-79.34-.46-83.92s-3.52-8.1-7.49-7.34-38.07,19.11-41,21.71S1399.22,817.42,1399.22,817.42Z" transform="translate(-268.67 -383.91)"/><path class="cls-19" d="M1297.4,1027.32h0" transform="translate(-268.67 -383.91)"/><path class="cls-7" d="M1002.65,1259.65h-.08v0h.08Z" transform="translate(-268.67 -383.91)"/><path class="cls-7" d="M1002.64,1189.1l-.07,0v-.07l.1,0,.1,0-.12,0Z" transform="translate(-268.67 -383.91)"/><path class="cls-1" d="M1074.76,1335.36s4.47-6.92,16.39-8.76,3.33,2.34.46,4.38-7.28,4.74-9.51,6.57S1072.81,1340.09,1074.76,1335.36Z" transform="translate(-268.67 -383.91)"/><path class="cls-1" d="M1106.29,1324.77s1.09-4.41,5.39-4.41,6.59-.23,6.36.68-4.76,2.18-6.42,3.33S1105.48,1326.56,1106.29,1324.77Z" transform="translate(-268.67 -383.91)"/><path class="cls-1" d="M1130.31,1317.89s24.7-12,32.58-12,18.87,1.53,20.86,3.29-.07,3.51-4,3.51-20.41-.07-30.34,3.29-17,4.27-18.35,4.31S1127.8,1319.08,1130.31,1317.89Z" transform="translate(-268.67 -383.91)"/><path class="cls-1" d="M1189.33,1310.59s13.22-.23,20.1,1,15.9,5.5,17,6.64,1.45,4.82-1.6,4.06-11.68-5.58-16.54-6.42-13.58-.77-15.64-1.46S1186,1310.61,1189.33,1310.59Z" transform="translate(-268.67 -383.91)"/><path class="cls-1" d="M1082.1,1365.62s2.9-3.67,9.78-2.75,21.86.47,24.76,1.3,1.53,4-1.68,4.82-20.48,2-23.69,2S1079.19,1369.9,1082.1,1365.62Z" transform="translate(-268.67 -383.91)"/><path class="cls-1" d="M1135.18,1366.85a29.46,29.46,0,0,1,4.47-3c3.32-1.95,5.85-.46,4.13.91s-3.33,3.21-5.51,3.9S1133.46,1368.11,1135.18,1366.85Z" transform="translate(-268.67 -383.91)"/><path class="cls-1" d="M1150.66,1362.93s4.58-2.39,7.79-4.11,7.8-.69,10.55.92,8.37,2.18,12.27,1.83,12.38-2.41,16.16-2.18,10.44-1.83,14.45-3.21,11.69-1,11.46,1.38-8.71,6.19-12.15,7.22-16.85-.11-21.67,0-9.86-.8-14.33-.69-12.36-2.52-18.39-.57S1148.75,1363.93,1150.66,1362.93Z" transform="translate(-268.67 -383.91)"/><path class="cls-1" d="M1225.18,1361.11s.69-2.63,3.09-2.63,4.7-.58,4.7,1.32-2.75,2.88-4.47,3.13S1224,1363.06,1225.18,1361.11Z" transform="translate(-268.67 -383.91)"/><path class="cls-20" d="M1082.89,1200.2h0q1,2.3,2,4.74s12.79,30.55,8,65.74c29.86-24,82.1-20,82.1-20,69.1,11,99.8,78.58,99.8,78.58,5.08-70.09-19.24-102-42.89-120.48-6.76-5.28-13.38-9.46-19.11-13.13-25.82-16.51-122-56.87-122-56.87h-1.06C1085.28,1163.56,1083.31,1193.18,1082.89,1200.2Z" transform="translate(-268.67 -383.91)"/><path class="cls-1" d="M1095.83,1261.25s16.28-11,34.93-13.23c0,0-19.87,12.31-32,19.19Z" transform="translate(-268.67 -383.91)"/><path class="cls-1" d="M1086.48,1286.13a22.55,22.55,0,0,0,1.67-2.65,76.76,76.76,0,0,0,4.35-10l-4.63,9.77Z" transform="translate(-268.67 -383.91)"/><line class="cls-21" x1="800.19" y1="1015.74" x2="786.84" y2="1009.43"/><path class="cls-10" d="M1290.07,1071.26s-7.19,10.06-8,11.09a123.29,123.29,0,0,1-12.56,12.12,140.76,140.76,0,0,1-16.4,11.24c-4.75,2.84-15.87,7.6-21.52,9.49a155,155,0,0,1-25.11,6.19,211.62,211.62,0,0,1-27.52,2.35c-7.73.17-17.39-.29-19.08-.4s-17.2-.58-26.37,0-17.14.74-25.31,1.57-15.8,1.58-15.8,1.58-2.17,10.61-2.58,12.76-2,12.32-2.09,13.29-1.12,8.23-1.23,9.29-1.2,11.27-1.29,12.15-.89,9-1,10.87-.66,8.37-.72,9-.49,6.49-.49,6.49l-.29-.64-.51-13,1.21-24,2.6-23.42,3.3-15.79,11.84-1.2,7.33.26,23.28-1.21,27.63-.57H1180l16.62-.8,17.83-2.41,24.76-8,21.33-13.3,23.62-21.1,4.24-5Z" transform="translate(-268.67 -383.91)"/><polygon class="cls-10" points="814.48 763.4 807.24 768.91 807.68 766.86 812.66 758.58 815.53 758.8 815.87 761.5 814.48 763.4"/><path class="cls-20" d="M1110.54,1058.56l-.53,1.74-.17.54h0l-.21.37c-12.86,23.22-24,52.53-32.5,89.31-.09.37-.17.75-.26,1.12l0,.15,5.64-4.85h0l.65-.56.16-.14-6.1,43.09a.94.94,0,0,1-.12-.18l-.36-.56a1.74,1.74,0,0,1-.11-.18h0c-.14-.22-.28-.44-.43-.65-19-29-48.69-36.79-63.89-38.88l-.18,0c-2.13-.3-4-.47-5.45-.58h-.11c-2-.15-3.3-.17-3.78-.17h-.2c-.24,0-.67,0-1.27,0s-1,0-1.27,0h-.2c-.48,0-1.8,0-3.78.17h-.11c-1.48.11-3.32.28-5.45.58l-.18,0c-15.2,2.09-44.85,9.88-63.89,38.88-.15.21-.29.43-.43.65h0a1.74,1.74,0,0,1-.11.18l-.36.56a.94.94,0,0,1-.12.18l-6.1-43.09.16.14.65.56h0l5.64,4.85,0-.15c-.09-.37-.17-.75-.26-1.12-8.5-36.78-19.64-66.09-32.5-89.31l-.21-.37h0l-.17-.54-.53-1.74c0-.08,0-.15.05-.23.35-1.64.72-3.25,1.1-4.83,24.23-100.58,104.18-94.86,106.76-94.65.21,0,.66-.05,1.33-.07s1.12.05,1.33.07c2.58-.21,82.53-5.93,106.76,94.65.38,1.58.75,3.19,1.1,4.83C1110.51,1058.41,1110.52,1058.48,1110.54,1058.56Z" transform="translate(-268.67 -383.91)"/><path class="cls-7" d="M999.93,1189.09l.1,0Z" transform="translate(-268.67 -383.91)"/><path class="cls-7" d="M1002.64,1189.1l-.07,0v-.05A.11.11,0,0,1,1002.64,1189.1Z" transform="translate(-268.67 -383.91)"/><rect class="cls-22" x="731.48" y="869.51" width="2.73" height="8.06"/><path class="cls-1" d="M1000.88,1512.29h.84l1.45,3.09-1.45,4.25h-.84s-2.35-3.61-2.3-3.67S1000.88,1512.29,1000.88,1512.29Z" transform="translate(-268.67 -383.91)"/><path class="cls-1" d="M990.09,1554.1h24.22c8.19,0-7.51,5.36-7.51,5.36s-11.3-.77-11.41-.83-4.85-1.43-4.85-1.43Z" transform="translate(-268.67 -383.91)"/><path class="cls-6" d="M1087.71,1283.06c-4.91-5.94-14.67-16.3-24.93-19l-.31-.08,0-.32a61,61,0,0,0-1.49-6.53l-.23-.68c-.24-.76-.69-2.09-1.47-4.13l-.29-.79c-1.64-4.21-3.54-8.47-5.65-12.66-.46-.9-.93-1.83-1.43-2.78-1.91-3.59-4-7.07-6.09-10.35-10.78-16.58-23.56-28.09-38-34.19-1.64-.7-3.34-1.34-5-1.89h-2.89c-1.67.55-3.34,1.18-5,1.87l-.05,0-.1,0c-14.39,6.14-27.15,17.64-37.88,34.16-2.12,3.27-4.17,6.75-6.09,10.35-.5,1-1,1.88-1.43,2.79-2.11,4.17-4,8.43-5.65,12.66l-.29.77c-.87,2.3-1.31,3.64-1.46,4.11l-.28,0,.24,0c-.12.41-.2.64-.2.64l0,.06h0c-.25.92-.94,3.43-1.45,6.43l0,.32-.31.08c-10.26,2.72-20,13.08-24.92,19l-.51.6-4.76-10.05,0-.1c-.23-1.47-.31-2.49-.33-2.77-4.71-34.92,7.89-65.68,8-66,.66-1.72,1.3-3.26,2-4.71l.14-.32a95.46,95.46,0,0,1,6.08-11.4l.08-.13c18.85-29.91,48.67-38.08,64.76-40.3,1.86-.26,3.75-.46,5.62-.6,2.19-.16,3.6-.17,4-.17h2.8c.38,0,1.79,0,4,.17,1.87.14,3.76.34,5.62.61,16.1,2.21,45.91,10.38,64.73,40.24l.09.16a93.75,93.75,0,0,1,6.1,11.41l.16.37v.06c.58,1.24,1.22,2.77,1.94,4.62.12.3,12.72,31,8,66h0s-.06,1.07-.33,2.72l0,.13-4.75,10.05Z" transform="translate(-268.67 -383.91)"/><path class="cls-6" d="M1087.9,1282.9c-4.93-6-14.73-16.36-25.05-19.1l-.16,0,0-.16a61,61,0,0,0-1.49-6.56l0,0-.21-.66c-.16-.49-.6-1.83-1.47-4.14l-.29-.78c-1.65-4.23-3.55-8.5-5.66-12.69-.46-.91-.94-1.83-1.44-2.78-1.92-3.6-4-7.09-6.1-10.37-10.8-16.63-23.63-28.17-38.12-34.29-1.66-.71-3.36-1.34-5.07-1.9h-2.86l0,0c-1.73.56-3.45,1.21-5.13,1.92l0,0h0c-14.51,6.19-27.28,17.71-38,34.28-2.13,3.27-4.18,6.76-6.1,10.37-.5,1-1,1.87-1.44,2.78-2.11,4.19-4,8.46-5.66,12.69l-.28.78c-.88,2.3-1.32,3.64-1.47,4.12a.34.34,0,0,0,0,.12l-.2.62h0a65.19,65.19,0,0,0-1.47,6.52l0,.16-.16,0c-10.32,2.73-20.12,13.14-25,19.1l-.25.3-4.58-9.68,0-.08c-.23-1.48-.31-2.52-.32-2.71-4.7-34.86,7.87-65.57,8-65.88.66-1.72,1.3-3.26,2-4.7l.14-.32a94.8,94.8,0,0,1,6.06-11.36l.1-.16c18.78-29.8,48.51-38,64.57-40.16,1.85-.26,3.74-.46,5.6-.6,2.17-.16,3.58-.17,4-.17h2.8c.38,0,1.79,0,4,.17,1.86.14,3.74.34,5.61.6,16,2.21,45.78,10.36,64.55,40.14a1.26,1.26,0,0,0,.11.17,95.71,95.71,0,0,1,6.06,11.37l.14.32v0c.63,1.34,1.27,2.9,1.95,4.66.13.3,12.7,31,8,65.86,0,.12-.08,1.18-.32,2.72l0,.1-4.58,9.66Z" transform="translate(-268.67 -383.91)"/><path class="cls-1" d="M993.14,1144.43s3.21.07,3.06,6.34.08,9.25-1.53,9.32-1.61-3.28-2.07-5.73-1.83-4-2.29-6.19S992,1144,993.14,1144.43Z" transform="translate(-268.67 -383.91)"/><path class="cls-1" d="M984,1152.23s2.67-1.08,3.21,2.9.53,6-.39,6.65-1.91-.92-2.44-3S982.05,1153,984,1152.23Z" transform="translate(-268.67 -383.91)"/><path class="cls-1" d="M1009.46,1144.43s-3.21.07-3.06,6.34-.08,9.25,1.53,9.32,1.61-3.28,2.06-5.73,1.84-4,2.3-6.19S1010.61,1144,1009.46,1144.43Z" transform="translate(-268.67 -383.91)"/><path class="cls-1" d="M1018.63,1152.23s-2.67-1.08-3.21,2.9-.53,6,.38,6.65,1.91-.92,2.45-3S1020.54,1153,1018.63,1152.23Z" transform="translate(-268.67 -383.91)"/><path class="cls-7" d="M1062.91,1263.56a19.76,19.76,0,0,0-4.27-.67c-15.9-.61-25.38.61-32.72-1.83-6.38-2.14-13.22-2.87-23.15-1.42l-.1,0h0a4.28,4.28,0,0,1-2.63,0c-10-1.49-16.93-.76-23.35,1.39-7.34,2.44-16.82,1.22-32.72,1.83a19.76,19.76,0,0,0-4.27.67,59.4,59.4,0,0,1,1.51-6.61h0l.17-.53a1.31,1.31,0,0,1,0-.15c.25-.79.74-2.21,1.47-4.13l.29-.78c1.26-3.24,3.13-7.67,5.67-12.71q.69-1.37,1.44-2.79c1.76-3.31,3.79-6.82,6.11-10.39,8.57-13.19,21.07-27.13,38.23-34.38h0q2.57-1.1,5.26-2h0l.1,0a5,5,0,0,1,2.54,0v.05l.07,0h0l.12,0h0l.17,0q2.55.84,5,1.87h0c17.16,7.25,29.66,21.19,38.23,34.38,2.32,3.57,4.35,7.08,6.11,10.39q.75,1.42,1.44,2.79c2.54,5,4.41,9.47,5.67,12.71l.29.78c.73,1.92,1.22,3.34,1.47,4.13a1.31,1.31,0,0,1,0,.15l.17.53h0A59.4,59.4,0,0,1,1062.91,1263.56Z" transform="translate(-268.67 -383.91)"/><path class="cls-1" d="M997.9,1232.19s-4.52-1.09-5,2.75.51,10.43.51,10.43,3.1-1.94,3.44-4.81S999.73,1232.31,997.9,1232.19Z" transform="translate(-268.67 -383.91)"/><path class="cls-1" d="M989.53,1236.66s-3.26-.8-3.66,1-1.84,3.78-2,7c0,0,4.41-.52,4.7-2.53S991.14,1236.84,989.53,1236.66Z" transform="translate(-268.67 -383.91)"/><path class="cls-1" d="M1004.69,1232.19s4.53-1.09,5,2.75-.52,10.43-.52,10.43-3.09-1.94-3.43-4.81S1002.87,1232.31,1004.69,1232.19Z" transform="translate(-268.67 -383.91)"/><path class="cls-1" d="M1013.06,1236.66s3.27-.8,3.67,1,1.84,3.78,2,7c0,0-4.42-.52-4.7-2.53S1011.46,1236.84,1013.06,1236.66Z" transform="translate(-268.67 -383.91)"/><path class="cls-22" d="M1086.09,1286.44l-.71-.91c-3.94-5-14.26-16.75-24.87-19.56a3,3,0,0,1-.55-.22c-4.28-.46-8.91-.72-13.39-1-3.63-.21-7.07-.4-10.39-.71a72.77,72.77,0,0,1-10.74-1.88,32.35,32.35,0,0,0-6.35-1.08l-1,0c-5,0-15.4.93-15.5.94h-.85l-.52,0-.31,0H1000c-1.14-.1-10.8-.94-15.55-.94l-1,0a32.35,32.35,0,0,0-6.35,1.08,72.77,72.77,0,0,1-10.74,1.88c-3.32.31-6.76.5-10.39.71-4.48.26-9.1.52-13.48,1a1.31,1.31,0,0,1-.45.19c-10.62,2.81-20.94,14.61-24.88,19.56l-.58.75.19.32-.41.27-.42-.59,0,0-2-3.26-4.42-9.34-.1-.27.14-.27c5.58-5.57,22.95-14,31.36-16.63l.19,0a19.23,19.23,0,0,1,3.21-.76l.86-.09c2.44-.22,5.59-.28,8.92-.34a130.91,130.91,0,0,0,18.63-1.24,137.16,137.16,0,0,1,20-1.19c3.69,0,6.48.08,7,.1h1l.45,0,.51,0h.94c.53,0,3.27-.1,7-.1a137.16,137.16,0,0,1,20,1.19,130.84,130.84,0,0,0,18.59,1.24c3.37.06,6.52.12,9,.34l.85.09a21.35,21.35,0,0,1,3.33.78c8.44,2.6,25.86,11.07,31.39,16.6l.22.22-.1.29-6.39,13.5Z" transform="translate(-268.67 -383.91)"/><path class="cls-22" d="M914.28,1282.85l-4.41-9.31,0-.15.09-.17c5.51-5.49,22.83-13.92,31.22-16.51h0l.12,0a18.33,18.33,0,0,1,3.2-.76l.85-.09c2.44-.22,5.59-.28,8.93-.34a130.1,130.1,0,0,0,18.64-1.25,137.92,137.92,0,0,1,20-1.18c3.55,0,6.25.08,7,.1h1l.46,0,.46,0h1c.75,0,3.45-.1,7-.1a137.92,137.92,0,0,1,20,1.18,130.1,130.1,0,0,0,18.64,1.25c3.34.06,6.49.12,8.92.34l.86.09a19.6,19.6,0,0,1,3.27.77c8.47,2.61,25.79,11,31.3,16.53l.11.11,0,.15-6.21,13.12-.25-.31c-.12-.14-.24-.3-.37-.47l-.35-.44c-4-5-14.32-16.83-25-19.65a2.16,2.16,0,0,1-.5-.2c-4.38-.49-9-.75-13.49-1-3.65-.21-7.09-.4-10.38-.71a71.15,71.15,0,0,1-10.71-1.87,32.13,32.13,0,0,0-6.4-1.09l-1,0c-5,0-15.42.93-15.53.94h-.82l-.49,0-.37,0H1000c-.13,0-10.51-.94-15.55-.94l-1,0a32.13,32.13,0,0,0-6.4,1.09,71.39,71.39,0,0,1-10.71,1.87c-3.29.31-6.73.5-10.38.71-4.48.26-9.11.52-13.49,1a2.26,2.26,0,0,1-.49.2c-10.68,2.82-21,14.68-25,19.65,0,0-.6.77-.72.91l.31.44Z" transform="translate(-268.67 -383.91)"/><path class="cls-4" d="M1093.62,1271.1s-6,13.58-8.1,16.29,9.34,4.14,10,2.65,4-8,4.18-8.89,2.41-4.76.52-6.13S1093.62,1271.1,1093.62,1271.1Z" transform="translate(-268.67 -383.91)"/><path class="cls-4" d="M909.15,1271.27s5.53,12.72,7.59,15.44-9.34,4.13-10,2.64-3.95-8-4.18-8.88-2.41-4.76-.52-6.14S909.15,1271.27,909.15,1271.27Z" transform="translate(-268.67 -383.91)"/><path class="cls-17" d="M890.46,875.38S901,871,906.21,881.91s8.4,15.78,12.23,26.79,5,39.75,5.5,43.57,2.87,13.53,3.55,18.11,0,11.06-5.5,1.61-10.32-23.62-17.88-38.41S882.67,877.48,890.46,875.38Z" transform="translate(-268.67 -383.91)"/><path class="cls-1" d="M893.67,881s10.55-17.43,31.87,91C925.54,972,886.79,888.75,893.67,881Z" transform="translate(-268.67 -383.91)"/><path class="cls-10" d="M884.27,1045.68s8.23,11.75,12.81,23.29-10.7-7.64-10.93-8.1-6.19-15.19-6.19-15.19Z" transform="translate(-268.67 -383.91)"/><path class="cls-10" d="M1111.93,1055.84a253.84,253.84,0,0,0-11.65,24c-5.85,13.87,12.11-4.18,12.41-4.71s6.73-15.21,6.81-15.44.87-5.35.87-5.35Z" transform="translate(-268.67 -383.91)"/></svg>